<svg width="24.000000" height="24.000000" viewBox="0 0 24 24" fill="none" xmlns="http://www.w3.org/2000/svg" xmlns:xlink="http://www.w3.org/1999/xlink">
	<desc>
			Created with Pixso.
	</desc>
	<defs/>
	<mask id="mask_4_3312" fill="white">
		<path id="Path 13" d="M16.6294 12L13.6138 12L13.6138 22L9.11621 22L9.11621 12L7 12L7 8.47058L9.11621 8.47058L9.11621 6.16663C9.11621 4.54907 9.96289 2 13.6138 2L16.9473 2L16.9473 5.4314L14.5659 5.4314C14.1958 5.4314 13.6138 5.62744 13.6138 6.41174L13.6138 8.47058L17 8.47058L16.6294 12Z" clip-rule="evenodd" fill="" fill-opacity="1.000000" fill-rule="evenodd"/>
	</mask>
	<path id="Path 13" d="M16.6294 12L13.6138 12L13.6138 22L9.11621 22L9.11621 12L7 12L7 8.47058L9.11621 8.47058L9.11621 6.16663C9.11621 4.54907 9.96289 2 13.6138 2L16.9473 2L16.9473 5.4314L14.5659 5.4314C14.1958 5.4314 13.6138 5.62744 13.6138 6.41174L13.6138 8.47058L17 8.47058L16.6294 12Z" clip-rule="evenodd" fill="#535353" fill-opacity="1.000000" fill-rule="evenodd" mask="url(#mask_4_3312)"/>
	<path id="Path 13" d="" fill="#707070" fill-opacity="0.000000" fill-rule="nonzero"/>
</svg>
