<svg width="24.000000" height="24.000000" viewBox="0 0 24 24" fill="none" xmlns="http://www.w3.org/2000/svg" xmlns:xlink="http://www.w3.org/1999/xlink">
	<desc>
			Created with Pixso.
	</desc>
	<defs/>
	<mask id="mask_4_3316" fill="white">
		<path id="Path 8" d="M11.9526 2C13.2832 2.04736 14.6611 2.04736 15.9917 2.09473C17.1797 2.14209 18.2725 2.33142 19.3179 2.9469C20.6484 3.75171 21.4561 4.9353 21.7412 6.45032C21.8838 7.34985 21.9312 8.29663 21.979 9.19617C22.0107 10.5217 22 11.8473 21.9893 13.1729L21.9893 13.1731C21.9844 13.8359 21.979 14.4987 21.979 15.1615C21.979 16.203 21.9312 17.2446 21.5986 18.2388C20.9336 20.1799 19.5557 21.3635 17.5596 21.7422C16.6567 21.9316 15.7065 21.9316 14.8037 21.979C13.4746 22.0105 12.167 22 10.8525 21.9895C10.1924 21.9843 9.53076 21.979 8.86377 21.979C7.81836 21.979 6.77295 21.9316 5.7749 21.6002C3.82666 20.9374 2.63867 19.5645 2.25879 17.576C2.06885 16.6765 2.06885 15.7296 2.021 14.8301C1.98926 13.5045 2 12.1788 2.01074 10.8533C2.01562 10.1904 2.021 9.52759 2.021 8.86487C2.021 7.82324 2.06885 6.78174 2.40137 5.78748C3.06641 3.84644 4.44434 2.66284 6.44043 2.28406C7.34326 2.09473 8.29346 2.09473 9.19629 2.04736C10.0991 2 11.002 2 11.9526 2ZM20.1265 9.43311C20.1265 10.2379 20.1265 10.9954 20.1738 11.8003C20.1265 13.3625 20.1265 14.8776 20.0312 16.2979C19.9839 17.4341 19.6509 18.4283 18.7007 19.1858C18.1304 19.6593 17.4653 19.896 16.7524 19.9434C15.9922 20.038 15.2319 20.0853 14.4717 20.0853C13.8979 20.0853 13.3296 20.0907 12.7646 20.0959C11.645 20.1064 10.54 20.1168 9.43457 20.0853C8.53174 20.0853 7.62891 20.038 6.77344 19.896C5.06299 19.6119 4.01758 18.4283 3.875 16.724C3.77979 15.5878 3.73242 14.4042 3.73242 13.2678C3.73242 11.4689 3.73242 9.6698 3.77979 7.87073C3.82764 7.39734 3.875 6.92383 4.01758 6.45044C4.44531 5.03015 5.44287 4.22522 6.86865 3.98853C7.67627 3.84656 8.53174 3.79919 9.38721 3.79919C11.0977 3.75183 12.7607 3.75183 14.4717 3.79919C15.3271 3.79919 16.2773 3.79919 17.1328 3.98853C18.7959 4.31995 19.7935 5.45618 19.9839 7.16052C20.0786 7.91809 20.1265 8.67554 20.1265 9.43311Z" clip-rule="evenodd" fill="" fill-opacity="1.000000" fill-rule="evenodd"/>
	</mask>
	<path id="Path 8" d="M11.9526 2C13.2832 2.04736 14.6611 2.04736 15.9917 2.09473C17.1797 2.14209 18.2725 2.33142 19.3179 2.9469C20.6484 3.75171 21.4561 4.9353 21.7412 6.45032C21.8838 7.34985 21.9312 8.29663 21.979 9.19617C22.0107 10.5217 22 11.8473 21.9893 13.1729L21.9893 13.1731C21.9844 13.8359 21.979 14.4987 21.979 15.1615C21.979 16.203 21.9312 17.2446 21.5986 18.2388C20.9336 20.1799 19.5557 21.3635 17.5596 21.7422C16.6567 21.9316 15.7065 21.9316 14.8037 21.979C13.4746 22.0105 12.167 22 10.8525 21.9895C10.1924 21.9843 9.53076 21.979 8.86377 21.979C7.81836 21.979 6.77295 21.9316 5.7749 21.6002C3.82666 20.9374 2.63867 19.5645 2.25879 17.576C2.06885 16.6765 2.06885 15.7296 2.021 14.8301C1.98926 13.5045 2 12.1788 2.01074 10.8533C2.01562 10.1904 2.021 9.52759 2.021 8.86487C2.021 7.82324 2.06885 6.78174 2.40137 5.78748C3.06641 3.84644 4.44434 2.66284 6.44043 2.28406C7.34326 2.09473 8.29346 2.09473 9.19629 2.04736C10.0991 2 11.002 2 11.9526 2ZM20.1265 9.43311C20.1265 10.2379 20.1265 10.9954 20.1738 11.8003C20.1265 13.3625 20.1265 14.8776 20.0312 16.2979C19.9839 17.4341 19.6509 18.4283 18.7007 19.1858C18.1304 19.6593 17.4653 19.896 16.7524 19.9434C15.9922 20.038 15.2319 20.0853 14.4717 20.0853C13.8979 20.0853 13.3296 20.0907 12.7646 20.0959C11.645 20.1064 10.54 20.1168 9.43457 20.0853C8.53174 20.0853 7.62891 20.038 6.77344 19.896C5.06299 19.6119 4.01758 18.4283 3.875 16.724C3.77979 15.5878 3.73242 14.4042 3.73242 13.2678C3.73242 11.4689 3.73242 9.6698 3.77979 7.87073C3.82764 7.39734 3.875 6.92383 4.01758 6.45044C4.44531 5.03015 5.44287 4.22522 6.86865 3.98853C7.67627 3.84656 8.53174 3.79919 9.38721 3.79919C11.0977 3.75183 12.7607 3.75183 14.4717 3.79919C15.3271 3.79919 16.2773 3.79919 17.1328 3.98853C18.7959 4.31995 19.7935 5.45618 19.9839 7.16052C20.0786 7.91809 20.1265 8.67554 20.1265 9.43311Z" clip-rule="evenodd" fill="#535353" fill-opacity="1.000000" fill-rule="evenodd" mask="url(#mask_4_3316)"/>
	<path id="Path 8" d="" fill="#707070" fill-opacity="0.000000" fill-rule="nonzero"/>
	<mask id="mask_4_3319" fill="white">
		<path id="Path 9" d="M11.9517 17.1027C14.8027 17.1027 17.084 14.8301 17.084 11.9895C17.084 9.14893 14.8027 6.87646 11.9995 6.87646C9.14844 6.87646 6.81982 9.14893 6.81982 11.9421C6.81982 14.8301 9.10059 17.1027 11.9517 17.1027ZM15.2788 11.9894C15.2788 13.7885 13.7583 15.3035 11.9521 15.3035C10.0991 15.3035 8.57861 13.7885 8.62598 11.9894C8.62598 10.1903 10.0991 8.67542 11.9521 8.67542C13.7583 8.67542 15.2788 10.1903 15.2788 11.9894Z" clip-rule="evenodd" fill="" fill-opacity="1.000000" fill-rule="evenodd"/>
	</mask>
	<path id="Path 9" d="M11.9517 17.1027C14.8027 17.1027 17.084 14.8301 17.084 11.9895C17.084 9.14893 14.8027 6.87646 11.9995 6.87646C9.14844 6.87646 6.81982 9.14893 6.81982 11.9421C6.81982 14.8301 9.10059 17.1027 11.9517 17.1027ZM15.2788 11.9894C15.2788 13.7885 13.7583 15.3035 11.9521 15.3035C10.0991 15.3035 8.57861 13.7885 8.62598 11.9894C8.62598 10.1903 10.0991 8.67542 11.9521 8.67542C13.7583 8.67542 15.2788 10.1903 15.2788 11.9894Z" clip-rule="evenodd" fill="#535353" fill-opacity="1.000000" fill-rule="evenodd" mask="url(#mask_4_3319)"/>
	<path id="Path 9" d="" fill="#707070" fill-opacity="0.000000" fill-rule="nonzero"/>
	<path id="Path 10" d="M18.46 6.63C18.46 7.3 17.93 7.87 17.27 7.87C16.6 7.87 16.03 7.3 16.08 6.63C16.08 5.97 16.6 5.45 17.27 5.45C17.93 5.45 18.46 5.97 18.46 6.63Z" fill="#535353" fill-opacity="1.000000" fill-rule="nonzero"/>
	<path id="Path 10" d="M17.27 7.87C16.6 7.87 16.03 7.3 16.08 6.63C16.08 5.97 16.6 5.45 17.27 5.45C17.93 5.45 18.46 5.97 18.46 6.63C18.46 7.3 17.93 7.87 17.27 7.87Z" stroke="#707070" stroke-opacity="0" stroke-width="0.000000"/>
</svg>
