<svg width="24.000000" height="24.000000" viewBox="0 0 24 24" fill="none" xmlns="http://www.w3.org/2000/svg" xmlns:xlink="http://www.w3.org/1999/xlink">
	<desc>
			Created with Pixso.
	</desc>
	<defs/>
	<mask id="mask_4_3323" fill="white">
		<path id="Path 7" d="M2 4.31641C2 3.01697 2.97021 2 4.42578 2C5.88135 2 6.79785 3.01697 6.85156 4.31641C6.85156 5.61584 5.93506 6.63281 4.42578 6.63281L4.37207 6.63281C2.9165 6.63281 2 5.61584 2 4.31641ZM22 14.2599L22 22L17.6875 22L17.6875 14.7683C17.6875 12.9604 17.0942 11.7175 15.5312 11.7175C14.3452 11.7175 13.6445 12.5649 13.3208 13.356C13.2129 13.6384 13.1592 14.0339 13.1592 14.4294L13.1592 22L8.84668 22C8.84668 22 8.90039 9.74011 8.84668 8.49719L13.1592 8.49719L13.1592 10.4181C13.1592 10.4181 13.1592 10.4746 13.1055 10.4746L13.1592 10.4746L13.1592 10.4181C13.7524 9.51416 14.7227 8.1582 17.0405 8.1582C19.8438 8.1582 22 10.1356 22 14.2599ZM2.21582 22L6.47461 22L6.47461 8.49719L2.21582 8.49719L2.21582 22Z" clip-rule="evenodd" fill="" fill-opacity="1.000000" fill-rule="evenodd"/>
	</mask>
	<path id="Path 7" d="M2 4.31641C2 3.01697 2.97021 2 4.42578 2C5.88135 2 6.79785 3.01697 6.85156 4.31641C6.85156 5.61584 5.93506 6.63281 4.42578 6.63281L4.37207 6.63281C2.9165 6.63281 2 5.61584 2 4.31641ZM22 14.2599L22 22L17.6875 22L17.6875 14.7683C17.6875 12.9604 17.0942 11.7175 15.5312 11.7175C14.3452 11.7175 13.6445 12.5649 13.3208 13.356C13.2129 13.6384 13.1592 14.0339 13.1592 14.4294L13.1592 22L8.84668 22C8.84668 22 8.90039 9.74011 8.84668 8.49719L13.1592 8.49719L13.1592 10.4181C13.1592 10.4181 13.1592 10.4746 13.1055 10.4746L13.1592 10.4746L13.1592 10.4181C13.7524 9.51416 14.7227 8.1582 17.0405 8.1582C19.8438 8.1582 22 10.1356 22 14.2599ZM2.21582 22L6.47461 22L6.47461 8.49719L2.21582 8.49719L2.21582 22Z" clip-rule="evenodd" fill="#535353" fill-opacity="1.000000" fill-rule="evenodd" mask="url(#mask_4_3323)"/>
	<path id="Path 7" d="" fill="#707070" fill-opacity="0.000000" fill-rule="nonzero"/>
</svg>
