<svg width="24.000000" height="24.000000" viewBox="0 0 24 24" fill="none" xmlns="http://www.w3.org/2000/svg" xmlns:xlink="http://www.w3.org/1999/xlink">
	<desc>
			Created with Pixso.
	</desc>
	<defs/>
	<mask id="mask_4_3328" fill="white">
		<path id="Path 6" d="M22 5.13293C21.2471 5.49707 20.4941 5.7572 19.647 5.86133C20.4941 5.28906 21.1528 4.40466 21.4351 3.36414C20.6353 3.8844 19.7412 4.24854 18.8472 4.45667C18.0942 3.57227 17.0117 3 15.8354 3C13.5767 3 11.7412 5.02893 11.7412 7.526C11.7412 7.89014 11.7881 8.25427 11.8354 8.56653C8.3999 8.3584 5.38818 6.5896 3.36475 3.8324C2.98828 4.50867 2.7998 5.28906 2.7998 6.12134C2.7998 7.68213 3.50586 9.08667 4.63525 9.91907C3.97656 9.91907 3.31787 9.71094 2.75293 9.3468L2.75293 9.3988C2.75293 11.5839 4.16455 13.4567 6.04688 13.8728C5.71777 13.9769 5.34131 14.0289 4.96484 14.0289C4.68213 14.0289 4.44727 13.9769 4.21191 13.9248C4.72949 15.7456 6.23535 17.0463 8.0708 17.0983C6.65869 18.2948 4.91748 19.0231 2.98828 19.0231C2.65869 19.0231 2.32959 19.0231 2 18.9711C3.83545 20.2717 5.95312 21 8.30566 21C15.8823 21 19.9766 14.0809 19.9766 8.09827L19.9766 7.526C20.7764 6.84973 21.4824 6.01733 22 5.13293Z" clip-rule="evenodd" fill="" fill-opacity="1.000000" fill-rule="evenodd"/>
	</mask>
	<path id="Path 6" d="M22 5.13293C21.2471 5.49707 20.4941 5.7572 19.647 5.86133C20.4941 5.28906 21.1528 4.40466 21.4351 3.36414C20.6353 3.8844 19.7412 4.24854 18.8472 4.45667C18.0942 3.57227 17.0117 3 15.8354 3C13.5767 3 11.7412 5.02893 11.7412 7.526C11.7412 7.89014 11.7881 8.25427 11.8354 8.56653C8.3999 8.3584 5.38818 6.5896 3.36475 3.8324C2.98828 4.50867 2.7998 5.28906 2.7998 6.12134C2.7998 7.68213 3.50586 9.08667 4.63525 9.91907C3.97656 9.91907 3.31787 9.71094 2.75293 9.3468L2.75293 9.3988C2.75293 11.5839 4.16455 13.4567 6.04688 13.8728C5.71777 13.9769 5.34131 14.0289 4.96484 14.0289C4.68213 14.0289 4.44727 13.9769 4.21191 13.9248C4.72949 15.7456 6.23535 17.0463 8.0708 17.0983C6.65869 18.2948 4.91748 19.0231 2.98828 19.0231C2.65869 19.0231 2.32959 19.0231 2 18.9711C3.83545 20.2717 5.95312 21 8.30566 21C15.8823 21 19.9766 14.0809 19.9766 8.09827L19.9766 7.526C20.7764 6.84973 21.4824 6.01733 22 5.13293Z" clip-rule="evenodd" fill="#FFFFFF" fill-opacity="1.000000" fill-rule="evenodd" mask="url(#mask_4_3328)"/>
	<path id="Path 6" d="" fill="#707070" fill-opacity="0.000000" fill-rule="nonzero"/>
</svg>
