<svg width="40.000000" height="40.000000" viewBox="0 0 40 40" fill="none" xmlns="http://www.w3.org/2000/svg" xmlns:xlink="http://www.w3.org/1999/xlink">
	<desc>
			Created with Pixso.
	</desc>
	<defs/>
	<path id="Vector" d="M4.25 9L35.75 9M4.26 9.97L4.25 10C3.69 10 3.25 9.56 3.25 9C3.25 8.43 3.69 8 4.25 8L4.26 8.02L4.26 9.97ZM35.73 8.02L35.75 8C36.3 8 36.75 8.43 36.75 9C36.75 9.56 36.3 10 35.75 10L35.73 9.97L35.73 8.02Z" fill="#918F8F" fill-opacity="1.000000" fill-rule="nonzero"/>
	<path id="Vector" d="M4.25 9L35.75 9" stroke="#282828" stroke-opacity="1.000000" stroke-width="2.000000" stroke-linecap="round"/>
	<path id="Vector" d="M4.25 20.16L35.75 20.16M4.26 21.14L4.25 21.16C3.69 21.16 3.25 20.72 3.25 20.16C3.25 19.6 3.69 19.16 4.25 19.16L4.26 19.18L4.26 21.14ZM35.73 19.18L35.75 19.16C36.3 19.16 36.75 19.6 36.75 20.16C36.75 20.72 36.3 21.16 35.75 21.16L35.73 21.14L35.73 19.18Z" fill="#918F8F" fill-opacity="1.000000" fill-rule="nonzero"/>
	<path id="Vector" d="M4.25 20.16L35.75 20.16" stroke="#282828" stroke-opacity="1.000000" stroke-width="2.000000" stroke-linecap="round"/>
	<path id="Vector" d="M4.25 31.32L35.75 31.32M4.26 32.3L4.25 32.32C3.69 32.32 3.25 31.88 3.25 31.32C3.25 30.76 3.69 30.32 4.25 30.32L4.26 30.34L4.26 32.3ZM35.73 30.34L35.75 30.32C36.3 30.32 36.75 30.76 36.75 31.32C36.75 31.88 36.3 32.32 35.75 32.32L35.73 32.3L35.73 30.34Z" fill="#918F8F" fill-opacity="1.000000" fill-rule="nonzero"/>
	<path id="Vector" d="M4.25 31.32L35.75 31.32" stroke="#282828" stroke-opacity="1.000000" stroke-width="2.000000" stroke-linecap="round"/>
</svg>
