<svg width="24.000000" height="24.000000" viewBox="0 0 24 24" fill="none" xmlns="http://www.w3.org/2000/svg" xmlns:xlink="http://www.w3.org/1999/xlink">
	<desc>
			Created with Pixso.
	</desc>
	<defs/>
	<mask id="mask_2003_600" fill="white">
		<path id="Path 13" d="M16.6299 12L13.6133 12L13.6133 22L9.11621 22L9.11621 12L7 12L7 8.47058L9.11621 8.47058L9.11621 6.16666C9.11621 4.54901 9.96289 2 13.6133 2L16.9473 2L16.9473 5.43137L14.5664 5.43137C14.1953 5.43137 13.6133 5.62744 13.6133 6.41177L13.6133 8.47058L17 8.47058L16.6299 12Z" clip-rule="evenodd" fill="" fill-opacity="1.000000" fill-rule="evenodd"/>
	</mask>
	<path id="Path 13" d="M16.6299 12L13.6133 12L13.6133 22L9.11621 22L9.11621 12L7 12L7 8.47058L9.11621 8.47058L9.11621 6.16666C9.11621 4.54901 9.96289 2 13.6133 2L16.9473 2L16.9473 5.43137L14.5664 5.43137C14.1953 5.43137 13.6133 5.62744 13.6133 6.41177L13.6133 8.47058L17 8.47058L16.6299 12Z" clip-rule="evenodd" fill="#535353" fill-opacity="1.000000" fill-rule="evenodd" mask="url(#mask_2003_600)"/>
	<path id="Path 13" d="" fill="#707070" fill-opacity="0.000000" fill-rule="nonzero"/>
</svg>
