<svg width="24.000000" height="24.000000" viewBox="0 0 24 24" fill="none" xmlns="http://www.w3.org/2000/svg" xmlns:xlink="http://www.w3.org/1999/xlink">
	<desc>
			Created with Pixso.
	</desc>
	<defs/>
	<mask id="mask_2003_586" fill="white">
		<path id="Path 8" d="M11.9521 2C13.2832 2.04733 14.6611 2.04733 15.9912 2.0947C17.1797 2.14203 18.2725 2.33142 19.3174 2.94687C20.6484 3.75171 21.4561 4.9353 21.7412 6.45029C21.8838 7.34982 21.9316 8.29669 21.9785 9.19623C22.0107 10.5218 22 11.8473 21.9893 13.1729L21.9893 13.1731C21.9844 13.8359 21.9785 14.4987 21.9785 15.1615C21.9785 16.2031 21.9316 17.2446 21.5986 18.2388C20.9336 20.1799 19.5557 21.3635 17.5596 21.7422C16.6572 21.9316 15.7061 21.9316 14.8037 21.979C13.4746 22.0105 12.167 22 10.8525 21.9895C10.1924 21.9843 9.53125 21.979 8.86426 21.979C7.81836 21.979 6.77344 21.9316 5.77539 21.6002C3.82715 20.9374 2.63867 19.5644 2.25879 17.576C2.06836 16.6765 2.06836 15.7296 2.02148 14.8301C1.98926 13.5045 2 12.1789 2.01074 10.8532C2.01562 10.1904 2.02148 9.52762 2.02148 8.86481C2.02148 7.82324 2.06836 6.78171 2.40137 5.78748C3.06641 3.84641 4.44434 2.66281 6.44043 2.28406C7.34277 2.0947 8.29395 2.0947 9.19629 2.04733C10.0996 2 11.002 2 11.9521 2ZM20.126 9.43304C20.126 10.2379 20.126 10.9954 20.1738 11.8002C20.126 13.3625 20.126 14.8776 20.0312 16.2979C19.9834 17.4341 19.6514 18.4283 18.7012 19.1858C18.1309 19.6592 17.4648 19.896 16.7529 19.9433C15.9922 20.038 15.2314 20.0853 14.4717 20.0853C13.8975 20.0853 13.3291 20.0907 12.7646 20.0959C11.6455 20.1064 10.54 20.1168 9.43457 20.0853C8.53223 20.0853 7.62891 20.038 6.77344 19.896C5.0625 19.6119 4.01758 18.4283 3.875 16.724C3.78027 15.5877 3.73242 14.4041 3.73242 13.2679C3.73242 11.4688 3.73242 9.66977 3.78027 7.87073C3.82715 7.39728 3.875 6.92383 4.01758 6.45041C4.44531 5.03009 5.44336 4.22525 6.86816 3.98856C7.67676 3.8465 8.53223 3.79916 9.38672 3.79916C11.0977 3.75183 12.7607 3.75183 14.4717 3.79916C15.3271 3.79916 16.2773 3.79916 17.1328 3.98856C18.7959 4.31995 19.7939 5.45618 19.9834 7.16055C20.0791 7.91806 20.126 8.67557 20.126 9.43304Z" clip-rule="evenodd" fill="" fill-opacity="1.000000" fill-rule="evenodd"/>
	</mask>
	<path id="Path 8" d="M11.9521 2C13.2832 2.04733 14.6611 2.04733 15.9912 2.0947C17.1797 2.14203 18.2725 2.33142 19.3174 2.94687C20.6484 3.75171 21.4561 4.9353 21.7412 6.45029C21.8838 7.34982 21.9316 8.29669 21.9785 9.19623C22.0107 10.5218 22 11.8473 21.9893 13.1729L21.9893 13.1731C21.9844 13.8359 21.9785 14.4987 21.9785 15.1615C21.9785 16.2031 21.9316 17.2446 21.5986 18.2388C20.9336 20.1799 19.5557 21.3635 17.5596 21.7422C16.6572 21.9316 15.7061 21.9316 14.8037 21.979C13.4746 22.0105 12.167 22 10.8525 21.9895C10.1924 21.9843 9.53125 21.979 8.86426 21.979C7.81836 21.979 6.77344 21.9316 5.77539 21.6002C3.82715 20.9374 2.63867 19.5644 2.25879 17.576C2.06836 16.6765 2.06836 15.7296 2.02148 14.8301C1.98926 13.5045 2 12.1789 2.01074 10.8532C2.01562 10.1904 2.02148 9.52762 2.02148 8.86481C2.02148 7.82324 2.06836 6.78171 2.40137 5.78748C3.06641 3.84641 4.44434 2.66281 6.44043 2.28406C7.34277 2.0947 8.29395 2.0947 9.19629 2.04733C10.0996 2 11.002 2 11.9521 2ZM20.126 9.43304C20.126 10.2379 20.126 10.9954 20.1738 11.8002C20.126 13.3625 20.126 14.8776 20.0312 16.2979C19.9834 17.4341 19.6514 18.4283 18.7012 19.1858C18.1309 19.6592 17.4648 19.896 16.7529 19.9433C15.9922 20.038 15.2314 20.0853 14.4717 20.0853C13.8975 20.0853 13.3291 20.0907 12.7646 20.0959C11.6455 20.1064 10.54 20.1168 9.43457 20.0853C8.53223 20.0853 7.62891 20.038 6.77344 19.896C5.0625 19.6119 4.01758 18.4283 3.875 16.724C3.78027 15.5877 3.73242 14.4041 3.73242 13.2679C3.73242 11.4688 3.73242 9.66977 3.78027 7.87073C3.82715 7.39728 3.875 6.92383 4.01758 6.45041C4.44531 5.03009 5.44336 4.22525 6.86816 3.98856C7.67676 3.8465 8.53223 3.79916 9.38672 3.79916C11.0977 3.75183 12.7607 3.75183 14.4717 3.79916C15.3271 3.79916 16.2773 3.79916 17.1328 3.98856C18.7959 4.31995 19.7939 5.45618 19.9834 7.16055C20.0791 7.91806 20.126 8.67557 20.126 9.43304Z" clip-rule="evenodd" fill="#535353" fill-opacity="1.000000" fill-rule="evenodd" mask="url(#mask_2003_586)"/>
	<path id="Path 8" d="" fill="#707070" fill-opacity="0.000000" fill-rule="nonzero"/>
	<mask id="mask_2003_589" fill="white">
		<path id="Path 9" d="M11.9521 17.1025C14.8037 17.1025 17.084 14.83 17.084 11.9894C17.084 9.1488 14.8037 6.87634 12 6.87634C9.14844 6.87634 6.82031 9.1488 6.82031 11.9421C6.82031 14.83 9.10156 17.1025 11.9521 17.1025ZM15.2793 11.9893C15.2793 13.7883 13.7588 15.3033 11.9531 15.3033C10.0996 15.3033 8.5791 13.7883 8.62695 11.9893C8.62695 10.1902 10.0996 8.67526 11.9531 8.67526C13.7588 8.67526 15.2793 10.1902 15.2793 11.9893Z" clip-rule="evenodd" fill="" fill-opacity="1.000000" fill-rule="evenodd"/>
	</mask>
	<path id="Path 9" d="M11.9521 17.1025C14.8037 17.1025 17.084 14.83 17.084 11.9894C17.084 9.1488 14.8037 6.87634 12 6.87634C9.14844 6.87634 6.82031 9.1488 6.82031 11.9421C6.82031 14.83 9.10156 17.1025 11.9521 17.1025ZM15.2793 11.9893C15.2793 13.7883 13.7588 15.3033 11.9531 15.3033C10.0996 15.3033 8.5791 13.7883 8.62695 11.9893C8.62695 10.1902 10.0996 8.67526 11.9531 8.67526C13.7588 8.67526 15.2793 10.1902 15.2793 11.9893Z" clip-rule="evenodd" fill="#535353" fill-opacity="1.000000" fill-rule="evenodd" mask="url(#mask_2003_589)"/>
	<path id="Path 9" d="" fill="#707070" fill-opacity="0.000000" fill-rule="nonzero"/>
	<path id="Path 10" d="M18.46 6.63C18.46 7.3 17.93 7.87 17.27 7.87C16.6 7.87 16.03 7.3 16.08 6.63C16.08 5.97 16.6 5.45 17.27 5.45C17.93 5.45 18.46 5.97 18.46 6.63Z" fill="#535353" fill-opacity="1.000000" fill-rule="nonzero"/>
	<path id="Path 10" d="M17.27 7.87C16.6 7.87 16.03 7.3 16.08 6.63C16.08 5.97 16.6 5.45 17.27 5.45C17.93 5.45 18.46 5.97 18.46 6.63C18.46 7.3 17.93 7.87 17.27 7.87Z" stroke="#707070" stroke-opacity="0" stroke-width="0.000000"/>
</svg>
