<svg width="24.000000" height="24.000000" viewBox="0 0 24 24" fill="none" xmlns="http://www.w3.org/2000/svg" xmlns:xlink="http://www.w3.org/1999/xlink">
	<desc>
			Created with Pixso.
	</desc>
	<defs/>
	<mask id="mask_2003_604" fill="white">
		<path id="Path 6" d="M22 5.13293C21.2471 5.4971 20.4941 5.75723 19.6475 5.86127C20.4941 5.28903 21.1533 4.40463 21.4355 3.36417C20.6357 3.8844 19.7412 4.24857 18.8467 4.45663C18.0938 3.57227 17.0117 3 15.835 3C13.5762 3 11.7412 5.0289 11.7412 7.526C11.7412 7.89017 11.7881 8.25433 11.835 8.56647C8.40039 8.3584 5.38867 6.5896 3.36426 3.83237C2.98828 4.50867 2.7998 5.28903 2.7998 6.1214C2.7998 7.6821 3.50586 9.0867 4.63574 9.91907C3.97656 9.91907 3.31738 9.711 2.75293 9.34683L2.75293 9.39883C2.75293 11.5838 4.16504 13.4566 6.04688 13.8728C5.71777 13.9769 5.34082 14.0289 4.96484 14.0289C4.68262 14.0289 4.44727 13.9769 4.21191 13.9249C4.72949 15.7457 6.23535 17.0462 8.07031 17.0983C6.65918 18.2948 4.91797 19.0231 2.98828 19.0231C2.65918 19.0231 2.3291 19.0231 2 18.9711C3.83496 20.2717 5.95312 21 8.30566 21C15.8828 21 19.9766 14.0809 19.9766 8.09827L19.9766 7.526C20.7764 6.84973 21.4824 6.01733 22 5.13293Z" clip-rule="evenodd" fill="" fill-opacity="1.000000" fill-rule="evenodd"/>
	</mask>
	<path id="Path 6" d="M22 5.13293C21.2471 5.4971 20.4941 5.75723 19.6475 5.86127C20.4941 5.28903 21.1533 4.40463 21.4355 3.36417C20.6357 3.8844 19.7412 4.24857 18.8467 4.45663C18.0938 3.57227 17.0117 3 15.835 3C13.5762 3 11.7412 5.0289 11.7412 7.526C11.7412 7.89017 11.7881 8.25433 11.835 8.56647C8.40039 8.3584 5.38867 6.5896 3.36426 3.83237C2.98828 4.50867 2.7998 5.28903 2.7998 6.1214C2.7998 7.6821 3.50586 9.0867 4.63574 9.91907C3.97656 9.91907 3.31738 9.711 2.75293 9.34683L2.75293 9.39883C2.75293 11.5838 4.16504 13.4566 6.04688 13.8728C5.71777 13.9769 5.34082 14.0289 4.96484 14.0289C4.68262 14.0289 4.44727 13.9769 4.21191 13.9249C4.72949 15.7457 6.23535 17.0462 8.07031 17.0983C6.65918 18.2948 4.91797 19.0231 2.98828 19.0231C2.65918 19.0231 2.3291 19.0231 2 18.9711C3.83496 20.2717 5.95312 21 8.30566 21C15.8828 21 19.9766 14.0809 19.9766 8.09827L19.9766 7.526C20.7764 6.84973 21.4824 6.01733 22 5.13293Z" clip-rule="evenodd" fill="#535353" fill-opacity="1.000000" fill-rule="evenodd" mask="url(#mask_2003_604)"/>
	<path id="Path 6" d="" fill="#707070" fill-opacity="0.000000" fill-rule="nonzero"/>
</svg>
